<?xml version="1.0" encoding="utf-8"?>
<!-- Generator: Adobe Illustrator 19.2.1, SVG Export Plug-In . SVG Version: 6.00 Build 0)  -->
<svg version="1.1" id="Layer_1" xmlns="http://www.w3.org/2000/svg" xmlns:xlink="http://www.w3.org/1999/xlink" x="0px" y="0px"
	 viewBox="0 0 500 100" style="enable-background:new 0 0 500 100;" xml:space="preserve">
<style type="text/css">
	.st0{fill:#008391;}
	.st1{fill:#FFFFFF;}
</style>
<g>
	<path class="st0" d="M31.8,18.4c-17,0-30.7,13.8-30.7,30.7c0,17,13.8,30.7,30.7,30.7c17,0,30.7-13.7,30.7-30.7
		C62.5,32.1,48.7,18.4,31.8,18.4z M24,59.8V67h-9V47h9V59.8z M36,49.7V67h-9v-9.6V31h9V49.7z M48,67h0.4H39V47.3V40h9v-0.4v-0.1V67z
		"/>
	<g>
		<path class="st0" d="M74.9,61.6c2.2,0.5,7.7,1.7,12.1,1.7c6.2,0,8.2-1.9,8.2-4.6c0-3.5-3-4.1-9.4-5.2c-6.8-1.1-12.8-4-12.8-12.8
			c0-7.9,6.8-12.2,15.6-12.2c6.1,0,11.5,1.4,13.8,2.2l-1.9,7.2c-2.2-0.6-7.4-1.5-11.2-1.5c-4.4,0-7.4,0.9-7.4,4.1
			c0,3.2,3.5,3.8,8.5,4.6C97.5,46.5,104,48.7,104,58c0,7.9-5.7,13.2-15.6,13.2c-7.7,0-13.8-1.8-15.5-2.5L74.9,61.6z"/>
		<path class="st0" d="M125.5,69.3c-1.7,0.7-4.9,1.7-8,1.7c-2.9,0-8.5-1.5-8.5-9.8V47h-4v-6.7l4.5-1.1l0.8-6.4l7.7-2.1V39h6v8h-6
			v14.3c0,2,1.2,2.5,2.3,2.5c1.3,0,2.4-0.3,3.5-0.6L125.5,69.3z"/>
		<path class="st0" d="M147.8,70l-1.3-4c-1.5,2.2-4.3,4.9-9.4,4.9c-5.2,0-10.1-2.9-10.1-9.9c0-7.5,6.7-9.1,12.2-9.1h5.8v-1.3
			c0-3.8-2.3-5-5.5-5c-2.9,0-7.2,1.1-8.5,1.4l-1.7-6.5c2-0.6,6.8-2.2,11.3-2.2c4.9,0,12.4,1.2,12.4,13.3V70H147.8z M139.7,56.7
			c-3.4,0.1-4.5,1.9-4.5,3.8c0,2,1.1,4,4.2,4c3,0,5.7-2,5.7-8L139.7,56.7z"/>
		<path class="st0" d="M176.8,69.3c-1.7,0.7-4.6,1.7-7.7,1.7c-2.9,0-8.2-1.5-8.2-9.8V47h-5v-6.7l4.7-1.1l0.7-6.4l7.6-2.1V39h7v8h-7
			v14.3c0,2,1.3,2.5,2.5,2.5c1.3,0,2.5-0.3,3.6-0.6L176.8,69.3z"/>
		<path class="st0" d="M184.6,28c3.8,0,5,0.9,5,4.1c0,3.2-1.2,4.1-5,4.1c-3.9,0-5-0.9-5-4.1C179.5,28.9,180.7,28,184.6,28z M180,70
			V39h8v31H180z"/>
		<path class="st0" d="M195.1,62.6c1.4,0.4,6.5,1.6,10.4,1.6c3.1,0,4.8-0.8,4.8-2.6c0-2-1.2-2.5-6.9-3.5c-5.8-1.1-9.7-3.6-9.7-9.9
			c0-6.7,5.5-9.8,12.4-9.8c5,0,8.9,0.8,11.8,1.9l-1.6,6.2c-1.4-0.3-5.8-1.2-9.1-1.2c-3.6,0-5,0.8-5,2.5c0,2,1.6,2.3,7.2,3.3
			c5.8,1.1,9.6,3.4,9.6,9.4c0,7.1-5,10.8-12.8,10.8c-5.1,0-9.5-1.3-12.6-2.4L195.1,62.6z"/>
		<path class="st0" d="M241.3,69.3c-1.7,0.7-4.8,1.7-7.9,1.7c-2.9,0-8.4-1.5-8.4-9.8V47h-5v-6.7l4.9-1.1l0.6-6.4l7.4-2.1V39h7v8h-7
			v14.3c0,2,1.6,2.5,2.7,2.5c1.3,0,2.6-0.3,3.7-0.6L241.3,69.3z"/>
		<path class="st0" d="M249.1,28c3.8,0,5,0.9,5,4.1c0,3.2-1.2,4.1-5,4.1c-3.9,0-5-0.9-5-4.1C244,28.9,245.2,28,249.1,28z M244,70V39
			h10v31H244z"/>
		<path class="st0" d="M278.8,70l-7.7-11.8l-3.1,4.1V70h-8V28h8v19.3c0,2.7-0.2,5.5-0.3,6.4c0.3-0.8,2.1-4.2,3.6-6.2l6.5-8.4h9.9
			l-10.5,13l11.5,18H278.8z"/>
		<path class="st0" d="M310.3,69.3c-1.7,0.7-4.3,1.7-7.4,1.7c-2.9,0-7.9-1.5-7.9-9.8V47h-5v-6.7l4.4-1.1l0.9-6.4l7.7-2.1V39h7v8h-7
			v14.3c0,2,1.1,2.5,2.2,2.5c1.3,0,2.4-0.3,3.4-0.6L310.3,69.3z"/>
		<path class="st0" d="M323,71.2c0,9.1-8.7,10.5-10.9,10.9l-1.8-6.4c1.2-0.4,3.7-1.2,3.7-4.5V39h9V71.2z M317.9,28
			c3.8,0,5,0.9,5,4.1c0,3.2-1.2,4.1-5,4.1c-3.9,0-5-0.9-5-4.1C312.9,28.9,314,28,317.9,28z"/>
		<path class="st0" d="M347.1,70l-1.3-4c-1.5,2.2-4.3,4.9-9.4,4.9c-5.2,0-10.1-2.9-10.1-9.9c0-7.5,6.7-9.1,12.2-9.1h6.6v-1.3
			c0-3.8-2.6-5-5.9-5c-2.9,0-7.4,1.1-8.7,1.4l-1.8-6.5c2-0.6,7.1-2.2,11.7-2.2c4.9,0,12.7,1.2,12.7,13.3V70H347.1z M334.7,35.7
			c-3.3,0-4.3-0.8-4.3-3.9c0-3.1,1-3.9,4.3-3.9c3.3,0,4.3,0.8,4.3,3.9C339,34.8,338,35.7,334.7,35.7z M338.9,56.7
			c-3.4,0.1-4.5,1.9-4.5,3.8c0,2,1.1,4,4.2,4c3,0,5.7-2,5.7-8L338.9,56.7z M346.4,35.7c-3.3,0-4.3-0.8-4.3-3.9c0-3.1,1-3.9,4.3-3.9
			c3.3,0,4.3,0.8,4.3,3.9C350.7,34.8,349.7,35.7,346.4,35.7z"/>
		<path class="st0" d="M377,70V51.9c0-2.6-0.4-5.6-3.9-5.6c-2.4,0-4.1,1.4-6.1,2.8V70h-8V39h5.2l1.2,4.5c1.7-2,4.7-5.2,9.7-5.2
			c6.7,0,9.9,4.4,9.9,12.3V70H377z"/>
		<path class="st0" d="M391.2,62.6c1.4,0.4,6.5,1.6,10.4,1.6c3.1,0,4.8-0.8,4.8-2.6c0-2-1.2-2.5-6.9-3.5c-5.8-1.1-9.7-3.6-9.7-9.9
			c0-6.7,5.5-9.8,12.4-9.8c5,0,8.9,0.8,11.8,1.9l-1.6,6.2c-1.4-0.3-5.8-1.2-9.1-1.2c-3.6,0-5,0.8-5,2.5c0,2,1.6,2.3,7.2,3.3
			c5.8,1.1,9.6,3.4,9.6,9.4c0,7.1-5,10.8-12.8,10.8c-5.1,0-9.5-1.3-12.6-2.4L391.2,62.6z"/>
		<path class="st0" d="M437.4,69.3c-1.7,0.7-4.4,1.7-7.5,1.7c-2.9,0-8-1.5-8-9.8V47h-5v-6.7l4.5-1.1l0.8-6.4l7.7-2.1V39h7v8h-7v14.3
			c0,2,1.1,2.5,2.3,2.5c1.3,0,2.4-0.3,3.5-0.6L437.4,69.3z"/>
		<path class="st0" d="M466.4,68.8c-2.2,0.8-6.5,2.4-12.4,2.4c-10.8,0-15-7.3-15-16.5c0-9.4,4.7-16.4,14.7-16.4
			c9.2,0,13.3,6.1,13.3,15.4c0,1.5-0.1,2.3-0.1,3.3h-19.3c0.3,5,2.9,7,7.5,7c3.9,0,7.7-0.9,9.8-1.3L466.4,68.8z M458.9,51.8
			c-0.1-3.5-1.9-6.1-5.4-6.1c-3.4,0-5.8,2.5-5.9,6.4L458.9,51.8z"/>
		<path class="st0" d="M490,70V51.9c0-2.6-0.4-5.6-3.9-5.6c-2.4,0-4.1,1.4-6.1,2.8V70h-8V39h5.5l1.2,4.5c1.7-2,5-5.2,10-5.2
			c6.7,0,10.3,4.4,10.3,12.3V70H490z"/>
	</g>
</g>
</svg>
